<svg xmlns="http://www.w3.org/2000/svg" xmlns:xlink="http://www.w3.org/1999/xlink" width="375" zoomAndPan="magnify" viewBox="0 0 375 374.999991" height="374.999991" preserveAspectRatio="xMidYMid meet" version="1.0"><defs><g/></defs><g fill="rgb(0%, 0%, 0%)" fill-opacity="1"><g transform="translate(46.980471, 201.441726)"><g><path d="M 7.078125 0.0820312 L 16.085938 0.0820312 L 16.085938 -43.1875 L 34.984375 -16.566406 L 36.914062 -16.566406 L 56.054688 -43.1875 L 56.054688 0.0820312 L 65.0625 0.0820312 L 65.0625 -56.296875 L 54.605469 -56.296875 L 36.109375 -29.917969 L 17.53125 -56.296875 L 7.078125 -56.296875 Z M 7.078125 0.0820312 "/></g></g></g><g fill="rgb(0%, 0%, 0%)" fill-opacity="1"><g transform="translate(119.111879, 201.441726)"><g><path d="M 7.078125 0 L 16.003906 0 L 16.003906 -56.296875 L 7.078125 -56.296875 Z M 7.078125 0 "/></g></g></g><g fill="rgb(0%, 0%, 0%)" fill-opacity="1"><g transform="translate(142.190708, 201.441726)"><g><path d="M 2.089844 0 L 45.761719 0 L 45.761719 -8.605469 L 14.796875 -8.605469 L 45.761719 -52.195312 L 45.761719 -56.296875 L 4.664062 -56.296875 L 4.664062 -48.011719 L 32.492188 -48.011719 L 2.089844 -5.066406 Z M 2.089844 0 "/></g></g></g><g fill="rgb(0%, 0%, 0%)" fill-opacity="1"><g transform="translate(191.162869, 201.441726)"><g><path d="M 2.089844 0 L 45.761719 0 L 45.761719 -8.605469 L 14.796875 -8.605469 L 45.761719 -52.195312 L 45.761719 -56.296875 L 4.664062 -56.296875 L 4.664062 -48.011719 L 32.492188 -48.011719 L 2.089844 -5.066406 Z M 2.089844 0 "/></g></g></g><g fill="rgb(0%, 0%, 0%)" fill-opacity="1"><g transform="translate(240.13503, 201.441726)"><g><path d="M 7.078125 0 L 16.003906 0 L 16.003906 -56.296875 L 7.078125 -56.296875 Z M 7.078125 0 "/></g></g></g><g fill="rgb(0%, 0%, 0%)" fill-opacity="1"><g transform="translate(263.213871, 201.441726)"><g><path d="M 32.410156 1.125 C 51.953125 1.125 61.203125 -12.789062 61.203125 -27.90625 C 61.203125 -43.027344 51.792969 -57.261719 32.570312 -57.261719 C 15.601562 -57.261719 3.617188 -44.875 3.617188 -27.828125 C 3.617188 -13.109375 12.867188 1.125 32.410156 1.125 Z M 32.410156 -7.15625 C 18.417969 -7.15625 12.546875 -17.773438 12.546875 -27.746094 C 12.546875 -39.96875 19.460938 -49.058594 32.570312 -49.058594 C 46.402344 -49.058594 52.273438 -38.121094 52.273438 -27.746094 C 52.273438 -17.128906 46.402344 -7.15625 32.410156 -7.15625 Z M 32.410156 -7.15625 "/></g></g></g></svg>